<?xml version="1.0" encoding="UTF-8" standalone="no"?>
<!-- Created with Inkscape (http://www.inkscape.org/) -->

<svg
   xmlns:dc="http://purl.org/dc/elements/1.1/"
   xmlns:cc="http://creativecommons.org/ns#"
   xmlns:rdf="http://www.w3.org/1999/02/22-rdf-syntax-ns#"
   xmlns:svg="http://www.w3.org/2000/svg"
   xmlns="http://www.w3.org/2000/svg"
   xmlns:sodipodi="http://sodipodi.sourceforge.net/DTD/sodipodi-0.dtd"
   xmlns:inkscape="http://www.inkscape.org/namespaces/inkscape"
   width="210mm"
   height="297mm"
   viewBox="0 0 744.09448819 1052.3622047"
   id="svg2"
   version="1.1"
   inkscape:version="0.91 r13725"
   sodipodi:docname="all.svg">
  <defs
     id="defs4" />
  <sodipodi:namedview
     id="base"
     pagecolor="#ffffff"
     bordercolor="#666666"
     borderopacity="1.0"
     inkscape:pageopacity="0.0"
     inkscape:pageshadow="2"
     inkscape:zoom="1.4"
     inkscape:cx="255.75555"
     inkscape:cy="733.18361"
     inkscape:document-units="px"
     inkscape:current-layer="layer1"
     showgrid="false"
     inkscape:window-width="1366"
     inkscape:window-height="715"
     inkscape:window-x="1358"
     inkscape:window-y="-8"
     inkscape:window-maximized="1" />
  <metadata
     id="metadata7">
    <rdf:RDF>
      <cc:Work
         rdf:about="">
        <dc:format>image/svg+xml</dc:format>
        <dc:type
           rdf:resource="http://purl.org/dc/dcmitype/StillImage" />
        <dc:title />
      </cc:Work>
    </rdf:RDF>
  </metadata>
  <g
     inkscape:label="Capa 1"
     inkscape:groupmode="layer"
     id="layer1">
    <g
       id="g4172"
       transform="translate(-255.50041,-134.09903)"
       inkscape:export-xdpi="73.269997"
       inkscape:export-ydpi="73.269997">
      <path
         sodipodi:nodetypes="ccccccccccccc"
         inkscape:connector-curvature="0"
         id="path4138"
         d="m 286.88332,489.20216 12.62691,1.51523 38.3858,-4.54569 29.29442,-10.6066 16.16244,1.51523 6.56599,14.64721 -3.03045,16.16244 -24.24367,6.06092 -36.87056,8.08122 -26.26397,11.61675 -19.69797,-6.06091 -2.52539,-19.1929 z"
         style="fill:#28170b;fill-rule:evenodd;stroke:none;stroke-width:1px;stroke-linecap:butt;stroke-linejoin:miter;stroke-opacity:1" />
      <path
         inkscape:connector-curvature="0"
         id="path4140"
         d="m 288.39855,492.23262 -9.09137,17.17259 2.52538,16.16244 16.41498,5.3033 7.82868,-8.83883 1.01015,-19.1929 -8.83883,-7.82868 z"
         style="fill:#ff9955;fill-rule:evenodd;stroke:none;stroke-width:1px;stroke-linecap:butt;stroke-linejoin:miter;stroke-opacity:1" />
      <path
         inkscape:connector-curvature="0"
         id="path4142"
         d="m 294.45947,492.23262 5.3033,1.51523 8.58629,7.07106 0,21.21321 -6.31345,7.07107 21.46574,-8.5863 61.36677,-14.14214 3.03046,-14.14213 -6.06092,-13.63706 -14.39467,-1.26269 -29.04189,10.85914 z"
         style="fill:#502d16;fill-rule:evenodd;stroke:none;stroke-width:1px;stroke-linecap:butt;stroke-linejoin:miter;stroke-opacity:1" />
      <path
         inkscape:connector-curvature="0"
         id="path4144"
         d="m 294.58574,495.89442 -5.17704,-0.75761 -7.82868,14.39467 2.14658,14.39467 12.6269,3.53554 7.07107,-6.18719 0.37881,-17.80394 -10.35407,-2.0203 -7.19733,7.82868 0.50507,8.71257 7.82869,3.15672 5.80837,-9.34391 -6.56599,-5.55584 2.52538,6.06092 -3.15672,4.67195 -3.78808,-2.0203 -0.25253,-5.55584 5.55584,-5.3033 6.81853,1.26269 -0.75762,14.39467 -4.54569,4.04061 -10.10152,-2.39911 -2.52538,-11.99556 7.07107,-11.99556 z"
         style="fill:#c87137;fill-rule:evenodd;stroke:none;stroke-width:1px;stroke-linecap:butt;stroke-linejoin:miter;stroke-opacity:1" />
      <path
         id="path4146"
         d="m 368.95898,478.5957 -15.6582,7.32422 12.1211,-2.02148 3.5371,-5.30274 z m 13.48243,1.35938 -14.7461,7.73242 10.10157,-0.25391 -11.86915,5.55664 12.375,1.00977 -13.89062,5.30273 9.59766,2.52539 -27.7793,7.32422 -16.41602,-1.00976 11.36524,-5.30274 -24.75,1.76758 11.61719,-6.31445 -19.69727,3.08984 0,20.64844 -6.31445,7.07227 21.46679,-8.58594 61.36524,-14.14258 3.03125,-14.14258 -5.45703,-12.27734 z m -19.03907,7.47851 -16.66796,6.56641 -11.86915,2.52539 12.87891,1.00977 15.6582,-10.10157 z m -26.26367,3.28321 -10.60742,1.26367 -11.36328,1.76758 10.35351,1.26172 11.61719,-4.29297 z m 16.91992,10.10156 -6.06054,3.78906 5.30273,-0.75781 4.29297,-3.03125 -3.53516,0 z"
         style="fill:#2b1100;fill-rule:evenodd;stroke:none;stroke-width:1px;stroke-linecap:butt;stroke-linejoin:miter;stroke-opacity:1"
         inkscape:connector-curvature="0" />
      <path
         id="path4151"
         d="m 299.0332,495.70508 -1.29101,6.88086 4.48242,-4.05469 -3.19141,-2.82617 z"
         style="fill:#aa4400;fill-rule:evenodd;stroke:none;stroke-width:1px;stroke-linecap:butt;stroke-linejoin:miter;stroke-opacity:1"
         inkscape:connector-curvature="0" />
      <path
         id="path4153"
         d="m 300.82617,494.62305 3.3125,2.72851 5.22071,-2.08789 -8.53321,-0.64062 z"
         style="fill:#2b1100;fill-opacity:1;fill-rule:evenodd;stroke:none;stroke-width:1px;stroke-linecap:butt;stroke-linejoin:miter;stroke-opacity:1"
         inkscape:connector-curvature="0" />
    </g>
    <g
       id="g4219"
       transform="matrix(0.68706879,0,0,0.68706879,-37.504508,53.715915)"
       inkscape:export-xdpi="73.269997"
       inkscape:export-ydpi="73.269997">
      <path
         id="path4181"
         d="m 385.97266,405.88365 -14.64844,10.10156 -4.81836,10.55859 -28.51563,6.10938 -17.17382,17.17383 -4.54493,23.23242 6.06055,14.64844 38.89063,6.06054 22.72851,-7.47656 12.12305,10.00195 30.80859,-1.51562 8.08203,-15.6582 -13.63672,-24.24219 -6.74609,-0.67383 10.28125,-12.96484 -12.12305,-33.33399 -26.76757,-2.02148 z"
         style="fill:#374548;fill-rule:evenodd;stroke:none;stroke-width:1px;stroke-linecap:butt;stroke-linejoin:miter;stroke-opacity:1"
         inkscape:connector-curvature="0" />
      <path
         id="path4188"
         d="m 386.47656,408.4082 -13.63672,9.59766 -2.01953,8.08008 10.10157,7.07226 10.60546,17.67774 -0.20898,-7.50782 -3.46094,-2.92968 3.32813,-1.91992 -0.0449,-1.60938 -2.92578,-1.82812 2.82813,-1.69727 -0.0195,-0.69141 0.85547,-2.36914 c -0.85594,-0.82644 -1.6236,-1.67187 -1.16407,-1.67187 0.32759,0 1.16245,-0.36685 2.05469,-0.79297 l 1.30859,-3.62695 -2.82812,-2.72266 3.85352,-0.11328 0.71093,-1.96875 -1.88672,-2.38086 2.59961,0.40625 1.0625,-2.94141 0.40625,-0.0879 -1.03125,-2.19922 3.875,1.58985 2.73633,-0.58594 -0.36133,-1.89648 2.91993,1.34765 5.5957,-1.19922 -25.25391,-3.03125 z m -19.1914,21.71875 -25.25391,5.05078 -16.16406,14.64844 -6.56446,22.22266 6.06055,11.11133 16.66797,3.53515 -3.04687,-4.73633 -6.64454,-2.35351 5.38672,-1.79492 0.42383,-3.18555 -6.0625,-3.60547 6.71094,-1.24805 0.46484,-3.48632 -5.91406,-4.35743 6.53711,-0.31835 0.59375,-4.44336 -3.08985,-4.07618 7.36329,2.56055 3.06445,-0.90234 -3.10352,-6.20508 7.47266,4.91992 2.9707,-0.87305 0.16211,-5.05664 c 0,0 4.09144,1.96922 5.9375,3.26172 l 1.51367,-0.44531 c 0.53795,-2.05614 1.13672,-5.84766 1.13672,-5.84766 l 3.92578,5.18164 2.47461,0.57813 0.16407,-4.74805 3.13281,5.51758 4.86328,1.13477 3.36914,-3.36914 -0.71484,3.98828 0.30273,0.0703 1.67774,4.72851 2.01757,-0.70703 -0.86132,3.96289 2.72265,7.67383 1.51563,-16.66797 -8.58594,-14.14258 -12.62695,-7.57617 z m 25.2539,25.25391 -4.04101,17.67773 -2.52539,10.60743 11.61718,10.10156 11.11133,-1.51563 -2.79883,-2.79883 -6.08007,1.30274 3.03906,-4.3418 -1.16016,-1.16015 -5.09375,-0.39258 2.54297,-2.15821 -0.0469,-0.0469 -0.12305,-3.21289 -3.98047,-0.47461 3.88086,-2.11523 -0.0703,-1.81055 -4.70313,-1.60938 4.57031,-1.89453 -0.0781,-2.01562 1.72656,-1.0918 -1.39844,-2.49805 4.36719,0.625 2.79688,-1.76757 -0.55664,-3.67969 3.9707,1.93164 2.86328,-0.91602 0.30859,-2.97851 3.51172,1.75586 4.63282,-1.48242 -12.62696,-3.53516 -15.65625,-0.50586 z"
         style="fill:#53676c;fill-rule:evenodd;stroke:none;stroke-width:1px;stroke-linecap:butt;stroke-linejoin:miter;stroke-opacity:1"
         inkscape:connector-curvature="0" />
      <path
         id="path4195"
         d="m 412.5,415.21959 0,6.78515 -6.42773,2.14258 4.64257,5 -4.64257,1.42969 6.78515,4.64258 -10,0.35742 6.42774,9.64258 -10.71289,-3.92969 1.07031,7.14453 -6.42774,-3.21484 1.07032,7.85742 17.14257,0.35742 9.64454,-13.21484 -8.57227,-25 z m -32.85742,47.5 1.78515,11.42773 -10,0 6.78711,7.5 -13.57226,-1.78516 5.35742,5.35743 -16.78516,-1.07227 5.35743,4.28711 -10.71485,0.71289 12.85742,1.78711 22.14258,-5.71484 3.21485,-14.28516 -6.42969,-8.21484 z m 42.5,1.42773 0.71484,8.21484 -4.28515,0.71485 9.28515,7.14258 -11.07226,0.35742 7.14257,7.5 -11.07031,-4.64258 2.5,7.85547 -7.85742,-3.21289 3.57227,6.07031 13.21289,-1.07031 8.57226,-12.14258 -10.71484,-16.78711 z"
         style="fill:#1c2224;fill-rule:evenodd;stroke:none;stroke-width:1px;stroke-linecap:butt;stroke-linejoin:miter;stroke-opacity:1"
         inkscape:connector-curvature="0" />
    </g>
    <g
       id="g4283"
       transform="translate(-12.232066,-111.66646)"
       inkscape:export-xdpi="73.269997"
       inkscape:export-ydpi="73.269997">
      <path
         sodipodi:nodetypes="ccccccccccc"
         style="fill:#ffb380;fill-rule:evenodd;stroke:none;stroke-width:1px;stroke-linecap:butt;stroke-linejoin:miter;stroke-opacity:1"
         d="m 200.51528,588.58036 -43.43656,-8.08122 -62.124385,19.69797 0.505081,12.12183 16.667514,24.74874 32.32488,-4.04061 11.61676,-16.16244 12.62691,-10.10153 22.22335,2.52538 10.10153,-10.10152 z"
         id="path4226"
         inkscape:connector-curvature="0" />
      <path
         id="path4228"
         d="m 194.03711,587.375 3.95312,8.39844 -6.06054,3.53515 5.125,3.84375 3.96484,-3.96484 -0.50391,-10.60742 -6.47851,-1.20508 z m -61.83789,1.01367 -6.00195,1.90235 -14.57618,28.21093 9.59766,10.60547 -8.08203,2.02149 6.28516,5.02734 25.02929,-3.12891 11.61719,-16.16211 12.62695,-10.10156 6.0625,0.68945 5.04883,-4.10351 -6.56641,0 6.0625,-4.04102 -8.08203,-2.52539 8.08203,-6.5664 -47.10351,-1.82813 z"
         style="fill:#c87137;fill-rule:evenodd;stroke:none;stroke-width:1px;stroke-linecap:butt;stroke-linejoin:miter;stroke-opacity:1"
         inkscape:connector-curvature="0" />
      <path
         inkscape:connector-curvature="0"
         id="path4224"
         d="m 192.93914,576.07528 -35.86042,-7.57614 -42.42641,8.08122 -19.192894,23.73858 16.667514,24.74874 32.32488,-4.04061 11.61676,-16.16244 12.62691,-10.10153 22.22335,2.52538 10.10153,-10.10152 z"
         style="fill:#782121;fill-rule:evenodd;stroke:none;stroke-width:1px;stroke-linecap:butt;stroke-linejoin:miter;stroke-opacity:1" />
      <path
         id="path4236"
         d="m 157.33203,573.55078 4.29297,7.82813 -0.50586,4.29297 -11.86914,6.3125 14.64648,-2.77735 17.42579,1.26367 -10.60743,-4.29297 -6.3125,-1.26367 1.00977,-6.06054 -8.08008,-5.30274 z m -28.28515,18.6875 -10.85938,1.76758 -4.29297,7.57617 5.05078,5.55469 10.35352,-1.00977 6.81836,-8.08007 -7.07031,-5.8086 z m -4.54493,4.54492 3.53516,2.77735 -3.53516,2.77929 -4.79883,-2.02148 4.79883,-3.53516 z"
         style="fill:#d38d5f;fill-rule:evenodd;stroke:none;stroke-width:1px;stroke-linecap:butt;stroke-linejoin:miter;stroke-opacity:1"
         inkscape:connector-curvature="0" />
      <path
         id="path4244"
         d="m 183.88867,574.16406 0.7168,5.95117 -6.56641,9.34375 -23.23242,3.28321 -18.68945,-1.51367 -13.63672,8.58593 -9.0918,11.61524 2.67188,13.14648 28.39062,-3.54883 11.61719,-16.16211 12.62695,-10.10156 22.22266,2.52539 10.10156,-10.10156 -8.08008,-11.11133 -9.05078,-1.91211 z"
         style="opacity:0.5;fill:#c83737;fill-rule:evenodd;stroke:none;stroke-width:1px;stroke-linecap:butt;stroke-linejoin:miter;stroke-opacity:1"
         inkscape:connector-curvature="0" />
    </g>
    <g
       id="g4275"
       transform="translate(-51.51778,-137.38075)"
       inkscape:export-xdpi="73.269997"
       inkscape:export-ydpi="73.269997">
      <path
         inkscape:connector-curvature="0"
         id="path4251"
         d="m 215.66757,659.91794 9.59645,4.04061 17.17259,-11.61675 3.53553,-21.21321 -8.08122,-15.15229 -18.18274,1.01016 -10.10153,15.15229 z"
         style="fill:#2d5016;fill-rule:evenodd;stroke:none;stroke-width:1px;stroke-linecap:butt;stroke-linejoin:miter;stroke-opacity:1" />
      <path
         inkscape:connector-curvature="0"
         id="path4249"
         d="m 214.65742,660.42302 -16.66752,-19.1929 9.59645,-20.70813 20.70813,-9.59645 8.58629,0 -9.59645,10.10153 3.53554,4.04061 -9.09138,4.54568 6.566,3.53554 -9.59645,7.57614 8.08122,5.05077 0,10.6066 z"
         style="fill:#447821;fill-rule:evenodd;stroke:none;stroke-width:1px;stroke-linecap:butt;stroke-linejoin:miter;stroke-opacity:1" />
      <path
         inkscape:connector-curvature="0"
         id="path4253"
         d="m 218.19295,660.92809 -11.61675,0.50508 -10.10153,-13.13198 -12.62691,-5.05077 2.02031,-10.10152 8.08122,-10.10153 6.06091,2.52538 4.54569,-3.53553 6.06092,4.04061 0,10.6066 6.56599,6.56599 z"
         style="fill:#8dd35f;fill-rule:evenodd;stroke:none;stroke-width:1px;stroke-linecap:butt;stroke-linejoin:miter;stroke-opacity:1" />
      <path
         inkscape:connector-curvature="0"
         id="path4255"
         d="m 211.62696,661.43317 13.13198,7.07107 19.1929,-13.63706 8.5863,-3.53554 -0.50508,-7.07106 -5.55584,-4.04061 -4.54569,-6.566 -9.59644,-1.01015 -4.54569,10.10153 -11.61676,4.54568 z"
         style="fill:#447821;fill-rule:evenodd;stroke:none;stroke-width:1px;stroke-linecap:butt;stroke-linejoin:miter;stroke-opacity:1" />
      <path
         inkscape:connector-curvature="0"
         id="path4257"
         d="m 206.5762,656.88748 2.52538,7.07107 5.55584,1.01015 11.61675,-7.07106 4.54569,-13.13199 -5.55584,-14.14213 -6.56599,2.52538 -3.53554,-3.53554 -10.6066,5.05077 z"
         style="fill:#5aa02c;fill-rule:evenodd;stroke:none;stroke-width:1px;stroke-linecap:butt;stroke-linejoin:miter;stroke-opacity:1" />
      <path
         id="path4259"
         d="m 245.69141,632.82031 -13.54883,15.61328 -12.5,2.5 -11.07031,-1.07226 -1.42969,-12.5 -7.14258,-3.21289 -8.92773,2.14258 -3.78907,8.33398 9.19141,3.67578 10.10156,13.13281 1.59961,-0.0703 0.92578,2.5957 5.55664,1.00977 1.66016,-1.00977 8.44141,4.54493 19.1914,-13.63672 8.58789,-3.53516 -0.50586,-7.07226 -5.55664,-4.03907 -1.62695,-2.35156 0.8418,-5.04883 z"
         style="opacity:0.5;fill:#17280b;fill-rule:evenodd;stroke:none;stroke-width:1px;stroke-linecap:butt;stroke-linejoin:miter;stroke-opacity:1"
         inkscape:connector-curvature="0" />
    </g>
    <g
       id="g4326"
       transform="matrix(1.7011139,0,0,1.7011139,-239.6613,-333.57799)"
       inkscape:export-xdpi="73.269997"
       inkscape:export-ydpi="73.269997">
      <g
         transform="matrix(0.61838681,0,0,0.61838681,131.96145,186.60663)"
         id="g4269">
        <path
           style="fill:#999999;fill-rule:evenodd;stroke:none;stroke-width:1px;stroke-linecap:butt;stroke-linejoin:miter;stroke-opacity:1"
           d="m 267.18535,505.3646 22.22336,7.57614 41.41625,-25.25381 -4.54569,-13.13198 -13.13198,-2.02031 -36.36549,16.16244 z"
           id="path4258"
           inkscape:connector-curvature="0" />
        <path
           style="fill:#e6e6e6;fill-rule:evenodd;stroke:none;stroke-width:1px;stroke-linecap:butt;stroke-linejoin:miter;stroke-opacity:1"
           d="m 278.03572,489.8622 11.07142,3.92857 35.597,-18.67603 -11.83802,-1.69009 z"
           id="path4260"
           inkscape:connector-curvature="0"
           sodipodi:nodetypes="ccccc" />
        <path
           style="fill:#cccccc;fill-rule:evenodd;stroke:none;stroke-width:1px;stroke-linecap:butt;stroke-linejoin:miter;stroke-opacity:1"
           d="m 276.78572,490.75506 12.32142,4.10714 -0.17857,16.96429 L 268.75,504.8622 Z"
           id="path4262"
           inkscape:connector-curvature="0" />
        <path
           inkscape:connector-curvature="0"
           style="fill:#808080;fill-rule:evenodd;stroke:none;stroke-width:1px;stroke-linecap:butt;stroke-linejoin:miter;stroke-opacity:1"
           d="m 325.71484,475.75586 -15.35742,8.21289 7.32031,0 -10.89257,6.60742 9.10742,-1.42773 -15.35742,8.57031 10.71484,-1.42773 -16.25,9.82031 3.33203,1.38867 32.49219,-19.8125 -3.76563,-10.87891 -1.34375,-1.05273 z"
           id="path4264" />
      </g>
      <g
         id="g4276"
         transform="matrix(0.61838681,0,0,0.61838681,143.96145,190.60663)">
        <path
           inkscape:connector-curvature="0"
           id="path4278"
           d="m 267.18535,505.3646 22.22336,7.57614 41.41625,-25.25381 -4.54569,-13.13198 -13.13198,-2.02031 -36.36549,16.16244 z"
           style="fill:#999999;fill-rule:evenodd;stroke:none;stroke-width:1px;stroke-linecap:butt;stroke-linejoin:miter;stroke-opacity:1" />
        <path
           sodipodi:nodetypes="ccccc"
           inkscape:connector-curvature="0"
           id="path4280"
           d="m 278.03572,489.8622 11.07142,3.92857 35.597,-18.67603 -11.83802,-1.69009 z"
           style="fill:#e6e6e6;fill-rule:evenodd;stroke:none;stroke-width:1px;stroke-linecap:butt;stroke-linejoin:miter;stroke-opacity:1" />
        <path
           inkscape:connector-curvature="0"
           id="path4282"
           d="m 276.78572,490.75506 12.32142,4.10714 -0.17857,16.96429 L 268.75,504.8622 Z"
           style="fill:#cccccc;fill-rule:evenodd;stroke:none;stroke-width:1px;stroke-linecap:butt;stroke-linejoin:miter;stroke-opacity:1" />
        <path
           id="path4284"
           d="m 325.71484,475.75586 -15.35742,8.21289 7.32031,0 -10.89257,6.60742 9.10742,-1.42773 -15.35742,8.57031 10.71484,-1.42773 -16.25,9.82031 3.33203,1.38867 32.49219,-19.8125 -3.76563,-10.87891 -1.34375,-1.05273 z"
           style="fill:#808080;fill-rule:evenodd;stroke:none;stroke-width:1px;stroke-linecap:butt;stroke-linejoin:miter;stroke-opacity:1"
           inkscape:connector-curvature="0" />
      </g>
      <g
         transform="matrix(0.61838681,0,0,0.61838681,155.96145,194.60663)"
         id="g4286">
        <path
           style="fill:#999999;fill-rule:evenodd;stroke:none;stroke-width:1px;stroke-linecap:butt;stroke-linejoin:miter;stroke-opacity:1"
           d="m 267.18535,505.3646 22.22336,7.57614 41.41625,-25.25381 -4.54569,-13.13198 -13.13198,-2.02031 -36.36549,16.16244 z"
           id="path4288"
           inkscape:connector-curvature="0" />
        <path
           style="fill:#e6e6e6;fill-rule:evenodd;stroke:none;stroke-width:1px;stroke-linecap:butt;stroke-linejoin:miter;stroke-opacity:1"
           d="m 278.03572,489.8622 11.07142,3.92857 35.597,-18.67603 -11.83802,-1.69009 z"
           id="path4290"
           inkscape:connector-curvature="0"
           sodipodi:nodetypes="ccccc" />
        <path
           style="fill:#cccccc;fill-rule:evenodd;stroke:none;stroke-width:1px;stroke-linecap:butt;stroke-linejoin:miter;stroke-opacity:1"
           d="m 276.78572,490.75506 12.32142,4.10714 -0.17857,16.96429 L 268.75,504.8622 Z"
           id="path4292"
           inkscape:connector-curvature="0" />
        <path
           inkscape:connector-curvature="0"
           style="fill:#808080;fill-rule:evenodd;stroke:none;stroke-width:1px;stroke-linecap:butt;stroke-linejoin:miter;stroke-opacity:1"
           d="m 325.71484,475.75586 -15.35742,8.21289 7.32031,0 -10.89257,6.60742 9.10742,-1.42773 -15.35742,8.57031 10.71484,-1.42773 -16.25,9.82031 3.33203,1.38867 32.49219,-19.8125 -3.76563,-10.87891 -1.34375,-1.05273 z"
           id="path4294" />
      </g>
      <g
         transform="matrix(0.61838681,0,0,0.61838681,139.96145,178.60663)"
         id="g4296">
        <path
           style="fill:#999999;fill-rule:evenodd;stroke:none;stroke-width:1px;stroke-linecap:butt;stroke-linejoin:miter;stroke-opacity:1"
           d="m 267.18535,505.3646 22.22336,7.57614 41.41625,-25.25381 -4.54569,-13.13198 -13.13198,-2.02031 -36.36549,16.16244 z"
           id="path4298"
           inkscape:connector-curvature="0" />
        <path
           style="fill:#e6e6e6;fill-rule:evenodd;stroke:none;stroke-width:1px;stroke-linecap:butt;stroke-linejoin:miter;stroke-opacity:1"
           d="m 278.03572,489.8622 11.07142,3.92857 35.597,-18.67603 -11.83802,-1.69009 z"
           id="path4300"
           inkscape:connector-curvature="0"
           sodipodi:nodetypes="ccccc" />
        <path
           style="fill:#cccccc;fill-rule:evenodd;stroke:none;stroke-width:1px;stroke-linecap:butt;stroke-linejoin:miter;stroke-opacity:1"
           d="m 276.78572,490.75506 12.32142,4.10714 -0.17857,16.96429 L 268.75,504.8622 Z"
           id="path4302"
           inkscape:connector-curvature="0" />
        <path
           inkscape:connector-curvature="0"
           style="fill:#808080;fill-rule:evenodd;stroke:none;stroke-width:1px;stroke-linecap:butt;stroke-linejoin:miter;stroke-opacity:1"
           d="m 325.71484,475.75586 -15.35742,8.21289 7.32031,0 -10.89257,6.60742 9.10742,-1.42773 -15.35742,8.57031 10.71484,-1.42773 -16.25,9.82031 3.33203,1.38867 32.49219,-19.8125 -3.76563,-10.87891 -1.34375,-1.05273 z"
           id="path4304" />
      </g>
      <g
         id="g4306"
         transform="matrix(0.61838681,0,0,0.61838681,151.96145,182.60663)">
        <path
           inkscape:connector-curvature="0"
           id="path4308"
           d="m 267.18535,505.3646 22.22336,7.57614 41.41625,-25.25381 -4.54569,-13.13198 -13.13198,-2.02031 -36.36549,16.16244 z"
           style="fill:#999999;fill-rule:evenodd;stroke:none;stroke-width:1px;stroke-linecap:butt;stroke-linejoin:miter;stroke-opacity:1" />
        <path
           sodipodi:nodetypes="ccccc"
           inkscape:connector-curvature="0"
           id="path4310"
           d="m 278.03572,489.8622 11.07142,3.92857 35.597,-18.67603 -11.83802,-1.69009 z"
           style="fill:#e6e6e6;fill-rule:evenodd;stroke:none;stroke-width:1px;stroke-linecap:butt;stroke-linejoin:miter;stroke-opacity:1" />
        <path
           inkscape:connector-curvature="0"
           id="path4312"
           d="m 276.78572,490.75506 12.32142,4.10714 -0.17857,16.96429 L 268.75,504.8622 Z"
           style="fill:#cccccc;fill-rule:evenodd;stroke:none;stroke-width:1px;stroke-linecap:butt;stroke-linejoin:miter;stroke-opacity:1" />
        <path
           id="path4314"
           d="m 325.71484,475.75586 -15.35742,8.21289 7.32031,0 -10.89257,6.60742 9.10742,-1.42773 -15.35742,8.57031 10.71484,-1.42773 -16.25,9.82031 3.33203,1.38867 32.49219,-19.8125 -3.76563,-10.87891 -1.34375,-1.05273 z"
           style="fill:#808080;fill-rule:evenodd;stroke:none;stroke-width:1px;stroke-linecap:butt;stroke-linejoin:miter;stroke-opacity:1"
           inkscape:connector-curvature="0" />
      </g>
      <g
         transform="matrix(0.61838681,0,0,0.61838681,147.96145,170.60663)"
         id="g4316">
        <path
           style="fill:#999999;fill-rule:evenodd;stroke:none;stroke-width:1px;stroke-linecap:butt;stroke-linejoin:miter;stroke-opacity:1"
           d="m 267.18535,505.3646 22.22336,7.57614 41.41625,-25.25381 -4.54569,-13.13198 -13.13198,-2.02031 -36.36549,16.16244 z"
           id="path4318"
           inkscape:connector-curvature="0" />
        <path
           style="fill:#e6e6e6;fill-rule:evenodd;stroke:none;stroke-width:1px;stroke-linecap:butt;stroke-linejoin:miter;stroke-opacity:1"
           d="m 278.03572,489.8622 11.07142,3.92857 35.597,-18.67603 -11.83802,-1.69009 z"
           id="path4320"
           inkscape:connector-curvature="0"
           sodipodi:nodetypes="ccccc" />
        <path
           style="fill:#cccccc;fill-rule:evenodd;stroke:none;stroke-width:1px;stroke-linecap:butt;stroke-linejoin:miter;stroke-opacity:1"
           d="m 276.78572,490.75506 12.32142,4.10714 -0.17857,16.96429 L 268.75,504.8622 Z"
           id="path4322"
           inkscape:connector-curvature="0" />
        <path
           inkscape:connector-curvature="0"
           style="fill:#808080;fill-rule:evenodd;stroke:none;stroke-width:1px;stroke-linecap:butt;stroke-linejoin:miter;stroke-opacity:1"
           d="m 325.71484,475.75586 -15.35742,8.21289 7.32031,0 -10.89257,6.60742 9.10742,-1.42773 -15.35742,8.57031 10.71484,-1.42773 -16.25,9.82031 3.33203,1.38867 32.49219,-19.8125 -3.76563,-10.87891 -1.34375,-1.05273 z"
           id="path4324" />
      </g>
    </g>
    <g
       id="g4300"
       inkscape:export-xdpi="73.269997"
       inkscape:export-ydpi="73.269997">
      <g
         inkscape:export-ydpi="73.269997"
         inkscape:export-xdpi="73.269997"
         transform="matrix(0.42041566,0.88356712,-0.88356712,0.42041566,530.96828,-85.469392)"
         id="g4213">
        <path
           style="fill:#3f5465;fill-opacity:1;fill-rule:evenodd;stroke:none;stroke-width:1px;stroke-linecap:butt;stroke-linejoin:miter;stroke-opacity:1"
           d="m 316.64466,384.09446 -10.73938,-8.52833 6.63314,-5.68556 -8.84419,-7.58074 8.52833,-6.00142 -1.57932,-4.4221 13.89802,-6.31728 5.68556,5.68556 6.94901,-1.57932 9.79178,6.63314 -2.84277,3.47451 7.26487,6.00142 -7.8966,4.73796 6.00142,5.68555 -12.95043,9.16007 z"
           id="path4215"
           inkscape:connector-curvature="0" />
        <path
           inkscape:connector-curvature="0"
           style="opacity:0.5;fill:#a05a2c;fill-opacity:1;fill-rule:evenodd;stroke:none;stroke-width:1px;stroke-linecap:butt;stroke-linejoin:miter;stroke-opacity:1"
           d="m 329.37477,350.39229 -1.99096,2.43189 2.84352,1.10541 0,-2.68473 -0.85256,-0.85257 z m 12.49659,2.45388 -2.0105,1.39855 1.42176,1.42176 2.35494,-1.62452 -1.7662,-1.19579 z m -26.49068,1.55734 0.31636,2.36838 2.52717,1.10541 0.63148,-2.52595 -3.47501,-0.94784 z m 11.21408,5.84338 -1.57933,1.89447 -0.63271,-1.42055 -3.31621,0.78906 1.26419,2.52717 5.21068,-0.47393 -0.94662,-3.31622 z m 12.47582,3.00109 -2.68473,1.73689 -3.47378,0.31514 0,3.00109 5.52703,-1.42177 1.73689,2.3696 4.1065,-2.05324 0.15878,-3.63258 -4.10649,1.42176 -1.2642,-1.73689 z m -18.63556,7.26392 -4.26406,1.42177 4.89555,4.58041 4.58041,1.10541 0.31513,-3.94893 -3.63135,-0.63149 -1.89568,-2.52717 z m -8.52812,5.84339 -2.63709,1.88347 3.8964,3.09269 0.9515,-1.34358 -2.05324,-1.10541 1.10541,-1.10541 -1.26298,-1.42176 z m 26.05828,5.2119 -2.68473,0.31636 0.10626,3.4005 1.15793,0.0733 3.19041,-2.25601 -1.76987,-1.53413 z m -16.1084,0.47392 -1.03945,2.3183 1.85171,0.11726 -0.81226,-2.43556 z"
           id="path4217" />
        <path
           inkscape:connector-curvature="0"
           style="opacity:0.3;fill:#000000;fill-rule:evenodd;stroke:none;stroke-width:1px;stroke-linecap:butt;stroke-linejoin:miter;stroke-opacity:1"
           d="m 328.98757,350.00509 -0.26139,2.34517 3.08048,0.47392 0.0452,-1.9482 -1.62452,0.36888 -1.23976,-1.23977 z m 15.91175,4.89188 -1.01136,4.87601 0.3017,0.0537 -0.0647,-0.0537 2.8423,-3.47501 -2.0679,-1.401 z m -9.85583,3.84999 -0.12215,3.16721 1.75155,-0.96006 3.46157,0.33468 0.49591,-2.39648 -5.58688,-0.14535 z m 11.41561,2.95467 -0.36033,4.62561 -2.31219,4.00878 7.60348,-4.56209 -4.93096,-4.0723 z m -17.64376,1.68804 -2.85329,6.72771 -4.98471,2.1131 2.29509,0.89532 4.57798,-2.791 1.89934,-6.58969 -0.93441,-0.35544 z m -12.07763,6.76436 -5.54658,0.88187 -0.72798,0.62294 6.65565,0.11726 -0.38109,-1.62207 z m 26.76549,0.36765 -1.82606,0.70111 0.13925,2.05447 -1.95553,0.78905 -4.58041,0.23696 -0.94785,0.86844 5.86415,4.01611 -4.12603,4.66958 -15.31935,-1.10541 -4.34955,1.14938 0.24306,0.19299 19.89976,1.26297 12.94974,-9.1596 -5.99118,-5.67605 z"
           id="path4219" />
        <path
           inkscape:connector-curvature="0"
           style="opacity:0.3;fill:#f2f2f2;fill-rule:evenodd;stroke:none;stroke-width:1px;stroke-linecap:butt;stroke-linejoin:miter;stroke-opacity:1"
           d="m 324.54102,345.55859 -13.61719,6.18946 7.64844,4.90039 8.03515,-1.33985 1.51758,-3.66015 -2.76758,-5.27344 -0.8164,-0.81641 z m 12.63476,4.10743 -4.99609,1.13476 4.60547,5.75781 7.24804,-2.24609 -6.85742,-4.64648 z m -25.07031,6.71484 -8.41211,5.91992 6.48242,5.55469 2.05664,-0.58203 7.32031,-4.55469 -7.44726,-6.33789 z m -0.17188,14.01953 -6.02734,5.16602 10.73828,8.52734 0.27344,0.0176 4.95703,-9.25 -9.94141,-4.46094 z"
           id="path4221" />
      </g>
      <path
         inkscape:export-ydpi="73.269997"
         inkscape:export-xdpi="73.269997"
         id="path4225"
         d="M 338.5293 335.18164 L 336.3457 343.24414 L 335.55078 346.18359 L 334.83594 345.86719 L 333.96289 345.47852 L 333.10547 345.09766 L 327.73828 342.71289 L 326.79102 346.80859 L 326.41992 348.41406 L 324.78516 355.49023 L 324.7168 355.78711 L 326.91211 361.26953 L 331.54492 372.84766 L 331.63281 373.06445 L 331.9668 373.90039 L 331.96875 373.90039 L 334.22461 375.16602 L 335.30273 375.77148 L 345.50586 381.49219 L 348.00195 373.8125 L 348.00586 373.79883 L 348.28516 373.98438 L 355.51172 378.78516 L 357.03711 372.71484 L 357.74023 369.92188 L 357.74023 369.91992 L 357.75977 369.8418 L 362.02539 370.89258 L 362.39453 368.47656 L 362.61914 367.00195 L 362.93359 364.93945 L 363.76953 359.45312 L 360.66602 355.51562 L 359.45312 353.97656 L 359.875 352.78906 L 360.02734 352.36133 L 361.70703 347.62891 L 361.70898 347.62695 L 362.08594 346.5625 L 350.89258 337.13281 L 350.66211 336.93945 L 347.41797 340.19336 L 347.29688 340.125 L 338.5293 335.18164 z "
         style="fill:#000000;fill-opacity:1;fill-rule:evenodd;stroke:none;stroke-width:1px;stroke-linecap:butt;stroke-linejoin:miter;stroke-opacity:1;opacity:0.3" />
      <g
         inkscape:export-ydpi="73.269997"
         inkscape:export-xdpi="73.269997"
         transform="matrix(0.77809195,-0.43977832,0.43977832,0.77809195,-57.731916,237.77076)"
         id="g4251">
        <path
           style="fill:#3f5465;fill-opacity:1;fill-rule:evenodd;stroke:none;stroke-width:1px;stroke-linecap:butt;stroke-linejoin:miter;stroke-opacity:1"
           d="m 316.64466,384.09446 -10.73938,-8.52833 6.63314,-5.68556 -8.84419,-7.58074 8.52833,-6.00142 -1.57932,-4.4221 13.89802,-6.31728 5.68556,5.68556 6.94901,-1.57932 9.79178,6.63314 -2.84277,3.47451 7.26487,6.00142 -7.8966,4.73796 6.00142,5.68555 -12.95043,9.16007 z"
           id="path4166"
           inkscape:connector-curvature="0" />
        <path
           inkscape:connector-curvature="0"
           style="opacity:0.5;fill:#a05a2c;fill-opacity:1;fill-rule:evenodd;stroke:none;stroke-width:1px;stroke-linecap:butt;stroke-linejoin:miter;stroke-opacity:1"
           d="m 329.37477,350.39229 -1.99096,2.43189 2.84352,1.10541 0,-2.68473 -0.85256,-0.85257 z m 12.49659,2.45388 -2.0105,1.39855 1.42176,1.42176 2.35494,-1.62452 -1.7662,-1.19579 z m -26.49068,1.55734 0.31636,2.36838 2.52717,1.10541 0.63148,-2.52595 -3.47501,-0.94784 z m 11.21408,5.84338 -1.57933,1.89447 -0.63271,-1.42055 -3.31621,0.78906 1.26419,2.52717 5.21068,-0.47393 -0.94662,-3.31622 z m 12.47582,3.00109 -2.68473,1.73689 -3.47378,0.31514 0,3.00109 5.52703,-1.42177 1.73689,2.3696 4.1065,-2.05324 0.15878,-3.63258 -4.10649,1.42176 -1.2642,-1.73689 z m -18.63556,7.26392 -4.26406,1.42177 4.89555,4.58041 4.58041,1.10541 0.31513,-3.94893 -3.63135,-0.63149 -1.89568,-2.52717 z m -8.52812,5.84339 -2.63709,1.88347 3.8964,3.09269 0.9515,-1.34358 -2.05324,-1.10541 1.10541,-1.10541 -1.26298,-1.42176 z m 26.05828,5.2119 -2.68473,0.31636 0.10626,3.4005 1.15793,0.0733 3.19041,-2.25601 -1.76987,-1.53413 z m -16.1084,0.47392 -1.03945,2.3183 1.85171,0.11726 -0.81226,-2.43556 z"
           id="path4168" />
        <path
           inkscape:connector-curvature="0"
           style="opacity:0.3;fill:#000000;fill-rule:evenodd;stroke:none;stroke-width:1px;stroke-linecap:butt;stroke-linejoin:miter;stroke-opacity:1"
           d="m 328.98757,350.00509 -0.26139,2.34517 3.08048,0.47392 0.0452,-1.9482 -1.62452,0.36888 -1.23976,-1.23977 z m 15.91175,4.89188 -1.01136,4.87601 0.3017,0.0537 -0.0647,-0.0537 2.8423,-3.47501 -2.0679,-1.401 z m -9.85583,3.84999 -0.12215,3.16721 1.75155,-0.96006 3.46157,0.33468 0.49591,-2.39648 -5.58688,-0.14535 z m 11.41561,2.95467 -0.36033,4.62561 -2.31219,4.00878 7.60348,-4.56209 -4.93096,-4.0723 z m -17.64376,1.68804 -2.85329,6.72771 -4.98471,2.1131 2.29509,0.89532 4.57798,-2.791 1.89934,-6.58969 -0.93441,-0.35544 z m -12.07763,6.76436 -5.54658,0.88187 -0.72798,0.62294 6.65565,0.11726 -0.38109,-1.62207 z m 26.76549,0.36765 -1.82606,0.70111 0.13925,2.05447 -1.95553,0.78905 -4.58041,0.23696 -0.94785,0.86844 5.86415,4.01611 -4.12603,4.66958 -15.31935,-1.10541 -4.34955,1.14938 0.24306,0.19299 19.89976,1.26297 12.94974,-9.1596 -5.99118,-5.67605 z"
           id="path4208" />
        <path
           inkscape:connector-curvature="0"
           style="opacity:0.3;fill:#f2f2f2;fill-rule:evenodd;stroke:none;stroke-width:1px;stroke-linecap:butt;stroke-linejoin:miter;stroke-opacity:1"
           d="m 324.54102,345.55859 -13.61719,6.18946 7.64844,4.90039 8.03515,-1.33985 1.51758,-3.66015 -2.76758,-5.27344 -0.8164,-0.81641 z m 12.63476,4.10743 -4.99609,1.13476 4.60547,5.75781 7.24804,-2.24609 -6.85742,-4.64648 z m -25.07031,6.71484 -8.41211,5.91992 6.48242,5.55469 2.05664,-0.58203 7.32031,-4.55469 -7.44726,-6.33789 z m -0.17188,14.01953 -6.02734,5.16602 10.73828,8.52734 0.27344,0.0176 4.95703,-9.25 -9.94141,-4.46094 z"
           id="path4238" />
      </g>
      <path
         inkscape:export-ydpi="73.269997"
         inkscape:export-xdpi="73.269997"
         id="path4235"
         d="M 358.39648 361.56055 L 355.00977 364.64062 L 354.78711 364.84375 L 353.68555 365.8457 L 352.64648 365.55664 L 352.17578 365.42578 L 347.75586 364.19922 L 347.75391 364.19727 L 346.75977 363.92188 L 338.88672 374.72461 L 338.72461 374.94922 L 341.89844 377.69531 L 341.84375 377.81055 L 337.90234 386.11523 L 337.90234 386.11719 L 344.46484 387.40625 L 345.38867 387.58789 L 348.11719 388.125 L 347.875 388.79492 L 347.57812 389.61328 L 347.57617 389.61523 L 347.28516 390.41992 L 345.45703 395.46484 L 353.64062 396.75781 L 357.5625 397.37891 L 359.73633 396.32617 L 360.92578 395.75 L 361.3418 395.54883 L 361.67773 395.38477 L 372.66992 390.06055 L 372.78125 390.00781 L 373.60156 389.60938 L 373.60352 389.60938 L 379.65039 376.78711 L 372.49219 375.00586 L 372.48047 375.00195 L 372.63086 374.73633 L 376.54102 367.84375 L 370.91406 366.8418 L 370.91406 366.84375 L 368.32422 366.38281 L 368.25 366.36914 L 368.93359 362.41406 L 368.93164 362.41406 L 366.70703 362.23438 L 365.34961 362.12305 L 363.44922 361.9707 L 358.39648 361.56055 z "
         style="fill:#000000;fill-opacity:1;fill-rule:evenodd;stroke:none;stroke-width:1px;stroke-linecap:butt;stroke-linejoin:miter;stroke-opacity:1;opacity:0.5" />
      <g
         id="g4202"
         transform="matrix(1.1055607,0,0,1.1055607,-34.836971,-27.213839)"
         inkscape:export-xdpi="73.269997"
         inkscape:export-ydpi="73.269997">
        <path
           inkscape:connector-curvature="0"
           id="path4204"
           d="m 316.64466,384.09446 -10.73938,-8.52833 6.63314,-5.68556 -8.84419,-7.58074 8.52833,-6.00142 -1.57932,-4.4221 13.89802,-6.31728 5.68556,5.68556 6.94901,-1.57932 9.79178,6.63314 -2.84277,3.47451 7.26487,6.00142 -7.8966,4.73796 6.00142,5.68555 -12.95043,9.16007 z"
           style="fill:#3f5465;fill-opacity:1;fill-rule:evenodd;stroke:none;stroke-width:1px;stroke-linecap:butt;stroke-linejoin:miter;stroke-opacity:1" />
        <path
           id="path4206"
           d="m 329.37477,350.39229 -1.99096,2.43189 2.84352,1.10541 0,-2.68473 -0.85256,-0.85257 z m 12.49659,2.45388 -2.0105,1.39855 1.42176,1.42176 2.35494,-1.62452 -1.7662,-1.19579 z m -26.49068,1.55734 0.31636,2.36838 2.52717,1.10541 0.63148,-2.52595 -3.47501,-0.94784 z m 11.21408,5.84338 -1.57933,1.89447 -0.63271,-1.42055 -3.31621,0.78906 1.26419,2.52717 5.21068,-0.47393 -0.94662,-3.31622 z m 12.47582,3.00109 -2.68473,1.73689 -3.47378,0.31514 0,3.00109 5.52703,-1.42177 1.73689,2.3696 4.1065,-2.05324 0.15878,-3.63258 -4.10649,1.42176 -1.2642,-1.73689 z m -18.63556,7.26392 -4.26406,1.42177 4.89555,4.58041 4.58041,1.10541 0.31513,-3.94893 -3.63135,-0.63149 -1.89568,-2.52717 z m -8.52812,5.84339 -2.63709,1.88347 3.8964,3.09269 0.9515,-1.34358 -2.05324,-1.10541 1.10541,-1.10541 -1.26298,-1.42176 z m 26.05828,5.2119 -2.68473,0.31636 0.10626,3.4005 1.15793,0.0733 3.19041,-2.25601 -1.76987,-1.53413 z m -16.1084,0.47392 -1.03945,2.3183 1.85171,0.11726 -0.81226,-2.43556 z"
           style="opacity:0.5;fill:#a05a2c;fill-opacity:1;fill-rule:evenodd;stroke:none;stroke-width:1px;stroke-linecap:butt;stroke-linejoin:miter;stroke-opacity:1"
           inkscape:connector-curvature="0" />
        <path
           id="path4209"
           d="m 328.98757,350.00509 -0.26139,2.34517 3.08048,0.47392 0.0452,-1.9482 -1.62452,0.36888 -1.23976,-1.23977 z m 15.91175,4.89188 -1.01136,4.87601 0.3017,0.0537 -0.0647,-0.0537 2.8423,-3.47501 -2.0679,-1.401 z m -9.85583,3.84999 -0.12215,3.16721 1.75155,-0.96006 3.46157,0.33468 0.49591,-2.39648 -5.58688,-0.14535 z m 11.41561,2.95467 -0.36033,4.62561 -2.31219,4.00878 7.60348,-4.56209 -4.93096,-4.0723 z m -17.64376,1.68804 -2.85329,6.72771 -4.98471,2.1131 2.29509,0.89532 4.57798,-2.791 1.89934,-6.58969 -0.93441,-0.35544 z m -12.07763,6.76436 -5.54658,0.88187 -0.72798,0.62294 6.65565,0.11726 -0.38109,-1.62207 z m 26.76549,0.36765 -1.82606,0.70111 0.13925,2.05447 -1.95553,0.78905 -4.58041,0.23696 -0.94785,0.86844 5.86415,4.01611 -4.12603,4.66958 -15.31935,-1.10541 -4.34955,1.14938 0.24306,0.19299 19.89976,1.26297 12.94974,-9.1596 -5.99118,-5.67605 z"
           style="opacity:0.3;fill:#000000;fill-rule:evenodd;stroke:none;stroke-width:1px;stroke-linecap:butt;stroke-linejoin:miter;stroke-opacity:1"
           inkscape:connector-curvature="0" />
        <path
           id="path4211"
           d="m 324.54102,345.55859 -13.61719,6.18946 7.64844,4.90039 8.03515,-1.33985 1.51758,-3.66015 -2.76758,-5.27344 -0.8164,-0.81641 z m 12.63476,4.10743 -4.99609,1.13476 4.60547,5.75781 7.24804,-2.24609 -6.85742,-4.64648 z m -25.07031,6.71484 -8.41211,5.91992 6.48242,5.55469 2.05664,-0.58203 7.32031,-4.55469 -7.44726,-6.33789 z m -0.17188,14.01953 -6.02734,5.16602 10.73828,8.52734 0.27344,0.0176 4.95703,-9.25 -9.94141,-4.46094 z"
           style="opacity:0.3;fill:#f2f2f2;fill-rule:evenodd;stroke:none;stroke-width:1px;stroke-linecap:butt;stroke-linejoin:miter;stroke-opacity:1"
           inkscape:connector-curvature="0" />
      </g>
    </g>
  </g>
</svg>
