<?xml version="1.0" encoding="UTF-8" standalone="no"?>
<!-- Created with Inkscape (http://www.inkscape.org/) -->

<svg
   xmlns:dc="http://purl.org/dc/elements/1.1/"
   xmlns:cc="http://creativecommons.org/ns#"
   xmlns:rdf="http://www.w3.org/1999/02/22-rdf-syntax-ns#"
   xmlns:svg="http://www.w3.org/2000/svg"
   xmlns="http://www.w3.org/2000/svg"
   xmlns:sodipodi="http://sodipodi.sourceforge.net/DTD/sodipodi-0.dtd"
   xmlns:inkscape="http://www.inkscape.org/namespaces/inkscape"
   width="210mm"
   height="297mm"
   viewBox="0 0 744.09448819 1052.3622047"
   id="svg2"
   version="1.1"
   inkscape:version="0.91 r13725"
   sodipodi:docname="peasants.svg">
  <defs
     id="defs4" />
  <sodipodi:namedview
     id="base"
     pagecolor="#ffffff"
     bordercolor="#666666"
     borderopacity="1.0"
     inkscape:pageopacity="0.0"
     inkscape:pageshadow="2"
     inkscape:zoom="0.98994949"
     inkscape:cx="218.82564"
     inkscape:cy="446.67704"
     inkscape:document-units="px"
     inkscape:current-layer="layer1"
     showgrid="false"
     inkscape:window-width="1920"
     inkscape:window-height="1018"
     inkscape:window-x="-8"
     inkscape:window-y="-8"
     inkscape:window-maximized="1" />
  <metadata
     id="metadata7">
    <rdf:RDF>
      <cc:Work
         rdf:about="">
        <dc:format>image/svg+xml</dc:format>
        <dc:type
           rdf:resource="http://purl.org/dc/dcmitype/StillImage" />
        <dc:title></dc:title>
      </cc:Work>
    </rdf:RDF>
  </metadata>
  <g
     inkscape:label="Capa 1"
     inkscape:groupmode="layer"
     id="layer1">
    <g
       id="g3470"
       inkscape:export-xdpi="90"
       inkscape:export-ydpi="90">
      <path
         sodipodi:nodetypes="ccccccccccccccccccccccccccccccccccccccc"
         inkscape:connector-curvature="0"
         id="path3336"
         d="m 135.24414,498.62891 c -6.07469,-7e-5 -10.99813,4.92335 -10.99805,10.99804 0.005,1.90212 0.50282,3.77162 1.44532,5.42383 l 3.34179,10.02539 3.60547,0 -1.51758,5.66211 -10.38183,2.55859 -16.35254,30.85157 -2.5,-0.35742 -1.78516,6.78515 8.57032,3.92969 2.85742,-6.78711 -1.78516,-1.78516 11.57813,-15.98828 0.5957,33.07227 -2.24609,47.16406 -10.7793,6.28711 -0.44922,4.04297 17.51758,0 9.73437,-48.66602 9.73242,48.66602 17.51758,0 -0.44922,-4.04297 -10.77929,-6.28711 -2.2461,-47.16406 0.58203,-32.30274 11.01954,15.21875 -1.78711,1.78516 2.85742,6.78711 8.57226,-3.92969 -1.78711,-6.78515 -2.5,0.35742 -16.06152,-30.84571 -10.35644,-2.625 -1.70899,-5.60156 2.41016,0 5.26172,-12.66406 c 0.0956,-0.53504 0.27027,-1.65667 0.27148,-2.78516 7e-5,-6.07469 -4.92531,-10.99811 -11,-10.99804 z"
         style="fill:#d38d5f;fill-rule:evenodd;stroke:none;stroke-width:0.44465575px;stroke-linecap:butt;stroke-linejoin:miter;stroke-opacity:1" />
      <path
         inkscape:connector-curvature="0"
         id="path3362"
         d="m 130,530.39792 5.17857,5.71428 6.07143,-5.89285 9.28571,1.60714 11.25,16.25 -5.71428,18.57143 -5.89286,-13.92857 2.85714,16.78571 -3.39285,7.5 -27.67857,0.35714 -4.28572,-5.71428 3.75,-19.46429 -7.67857,15.71429 -6.42857,-16.25 12.5,-19.46429 z"
         style="fill:#decd87;fill-rule:evenodd;stroke:none;stroke-width:1px;stroke-linecap:butt;stroke-linejoin:miter;stroke-opacity:1" />
      <path
         sodipodi:nodetypes="cccccccccc"
         inkscape:connector-curvature="0"
         id="path3352"
         d="m 118.57143,574.8622 34.64286,-0.71428 -2.5,3.92857 2.85714,47.5 -16.07143,3.92857 -1.76405,-36.55484 -3.08801,36.46818 -14.43365,-2.41334 2.85714,-48.92857 z"
         style="fill:#6f916f;fill-rule:evenodd;stroke:none;stroke-width:1px;stroke-linecap:butt;stroke-linejoin:miter;stroke-opacity:1" />
    </g>
    <path
       sodipodi:nodetypes="ccccccccccccccccccccccccc"
       inkscape:connector-curvature="0"
       id="path3354"
       d="m 55.2449,498.62861 c -6.07469,-7e-5 -10.99922,4.92446 -10.99914,10.99915 0.005,1.90212 0.50263,3.77051 1.44513,5.42272 l 3.34186,10.02473 3.60588,0 -1.51721,5.66328 -10.10116,2.42216 0.898,49.85789 -2.24586,47.16217 -10.77943,6.28858 -0.44987,4.04272 17.51788,0 9.73379,-48.66549 9.73292,48.66549 17.51788,0 -0.44987,-4.04272 -10.77943,-6.28858 -2.24586,-47.16217 0.898,-49.85789 -10.35822,-2.48382 -1.70915,-5.60162 2.41,0 5.26129,-12.66233 c 0.0956,-0.53504 0.27051,-1.65663 0.27172,-2.78512 7e-5,-6.07469 -4.92446,-10.99922 -10.99915,-10.99915 z"
       style="fill:#d38d5f;fill-rule:evenodd;stroke:none;stroke-width:0.44465575px;stroke-linecap:butt;stroke-linejoin:miter;stroke-opacity:1" />
    <g
       id="g3456"
       inkscape:export-xdpi="90"
       inkscape:export-ydpi="90">
      <path
         inkscape:export-ydpi="90"
         inkscape:export-xdpi="90"
         style="fill:#784421;fill-rule:evenodd;stroke:none;stroke-width:1px;stroke-linecap:butt;stroke-linejoin:miter;stroke-opacity:1"
         d="m 420.5467,532.87867 -1.37525,5.82671 -71.03998,-17.13925 0.84036,-3.28227 z"
         id="path3427"
         inkscape:connector-curvature="0" />
      <path
         inkscape:export-ydpi="90"
         inkscape:export-xdpi="90"
         sodipodi:nodetypes="ccc"
         inkscape:connector-curvature="0"
         id="path3445"
         d="m 358.57143,500.21935 c -17.12754,8.52355 -16.82025,25.09395 -9.28572,45 0.23772,-15 -0.1794,-30 9.28572,-45 z"
         style="fill:#aca793;fill-rule:evenodd;stroke:none;stroke-width:1px;stroke-linecap:butt;stroke-linejoin:miter;stroke-opacity:1;fill-opacity:1" />
      <path
         inkscape:export-ydpi="90"
         inkscape:export-xdpi="90"
         style="fill:#d38d5f;fill-rule:evenodd;stroke:none;stroke-width:0.44465575px;stroke-linecap:butt;stroke-linejoin:miter;stroke-opacity:1"
         d="m 375.24414,498.62891 c -6.07469,-7e-5 -10.99813,4.92335 -10.99805,10.99804 0.005,1.90212 0.50282,3.77162 1.44532,5.42383 l 3.34179,10.02539 3.60547,0 -1.51758,5.66211 -10.09961,2.54883 -19.06445,13.17969 10.41406,17.06445 -3.78515,2.96094 2.83594,4.48828 9.08007,-4.20313 -1.4082,-6.41406 -2.69141,-1.19922 -4.78125,-9.9082 9.58203,-5.875 0.71485,39.63672 -2.24609,47.16406 -10.7793,6.28711 -0.44922,4.04297 17.51758,0 9.73437,-48.66602 9.73242,48.66602 17.51758,0 -0.44922,-4.04297 -10.77929,-6.28711 -2.2461,-47.16406 0.57422,-31.81836 11.94922,11.03516 7.27148,-4.12305 3.35743,-21.54688 2.70898,-0.97461 -0.94141,-5.49804 -7.98437,-1.64649 -2.11914,5.23438 2.71875,2.31836 -4.72461,17.09375 -11.92676,-19.12696 -10.34472,-3.28711 -1.70899,-5.60156 2.41016,0 5.26172,-12.66406 c 0.0956,-0.53504 0.27027,-1.65667 0.27148,-2.78516 7e-5,-6.07469 -4.92531,-10.99811 -11,-10.99804 z"
         id="path3429"
         inkscape:connector-curvature="0"
         sodipodi:nodetypes="cccccccccccccccccccccccccccccccccccccccccccc" />
      <path
         inkscape:export-ydpi="90"
         inkscape:export-xdpi="90"
         style="fill:#93aca7;fill-opacity:1;fill-rule:evenodd;stroke:none;stroke-width:1px;stroke-linecap:butt;stroke-linejoin:miter;stroke-opacity:1"
         d="m 370.31478,530.11334 6.06092,6.31345 4.54568,-6.06091 9.34391,3.03045 10.65519,15.7239 -4.23187,3.95395 0.69634,7.41026 -6.1095,-5.8749 0.50507,17.17259 -2.77792,4.29315 -26.5165,0.75761 -3.03046,-4.04061 1.51523,-5.80837 -0.50508,-21.71828 -7.3236,4.79822 -12.12183,-1.26269 -0.25254,-3.78807 19.95051,-13.38452 z"
         id="path3431"
         inkscape:connector-curvature="0"
         sodipodi:nodetypes="ccccccccccccccccccc" />
      <path
         inkscape:export-ydpi="90"
         inkscape:export-xdpi="90"
         sodipodi:nodetypes="cccccccccc"
         inkscape:connector-curvature="0"
         id="path3433"
         d="m 358.57143,574.8622 34.64286,-0.71428 -2.5,3.92857 2.85714,47.5 -16.07143,3.92857 -1.76405,-36.55484 -3.08801,36.46818 -14.43365,-2.41334 2.85714,-48.92857 z"
         style="fill:#916f6f;fill-rule:evenodd;stroke:none;stroke-width:1px;stroke-linecap:butt;stroke-linejoin:miter;stroke-opacity:1" />
    </g>
    <g
       id="g3463"
       inkscape:export-xdpi="90"
       inkscape:export-ydpi="90">
      <path
         inkscape:export-ydpi="90"
         inkscape:export-xdpi="90"
         inkscape:connector-curvature="0"
         id="path3425"
         d="m 300.5467,532.87867 -1.37525,5.82671 -71.03998,-17.13925 0.84036,-3.28227 z"
         style="fill:#784421;fill-rule:evenodd;stroke:none;stroke-width:1px;stroke-linecap:butt;stroke-linejoin:miter;stroke-opacity:1" />
      <path
         inkscape:export-ydpi="90"
         inkscape:export-xdpi="90"
         sodipodi:nodetypes="cccccccccccccccccccccccccccccccccccccccccccc"
         inkscape:connector-curvature="0"
         id="path3369"
         d="m 255.24414,498.62891 c -6.07469,-7e-5 -10.99813,4.92335 -10.99805,10.99804 0.005,1.90212 0.50282,3.77162 1.44532,5.42383 l 3.34179,10.02539 3.60547,0 -1.51758,5.66211 -10.09961,2.54883 -19.06445,13.17969 10.41406,17.06445 -3.78515,2.96094 2.83594,4.48828 9.08007,-4.20313 -1.4082,-6.41406 -2.69141,-1.19922 -4.78125,-9.9082 9.58203,-5.875 0.71485,39.63672 -2.24609,47.16406 -10.7793,6.28711 -0.44922,4.04297 17.51758,0 9.73437,-48.66602 9.73242,48.66602 17.51758,0 -0.44922,-4.04297 -10.77929,-6.28711 -2.2461,-47.16406 0.57422,-31.81836 11.94922,11.03516 7.27148,-4.12305 3.35743,-21.54688 2.70898,-0.97461 -0.94141,-5.49804 -7.98437,-1.64649 -2.11914,5.23438 2.71875,2.31836 -4.72461,17.09375 -11.92676,-19.12696 -10.34472,-3.28711 -1.70899,-5.60156 2.41016,0 5.26172,-12.66406 c 0.0956,-0.53504 0.27027,-1.65667 0.27148,-2.78516 7e-5,-6.07469 -4.92531,-10.99811 -11,-10.99804 z"
         style="fill:#d38d5f;fill-rule:evenodd;stroke:none;stroke-width:0.44465575px;stroke-linecap:butt;stroke-linejoin:miter;stroke-opacity:1" />
      <path
         inkscape:export-ydpi="90"
         inkscape:export-xdpi="90"
         sodipodi:nodetypes="ccccccccccccccccccc"
         inkscape:connector-curvature="0"
         id="path3381"
         d="m 250.31478,530.11334 6.06092,6.31345 4.54568,-6.06091 9.34391,3.03045 10.65519,15.7239 -4.23187,3.95395 0.69634,7.41026 -6.1095,-5.8749 0.50507,17.17259 -2.77792,4.29315 -26.5165,0.75761 -3.03046,-4.04061 1.51523,-5.80837 -0.50508,-21.71828 -7.3236,4.79822 -12.12183,-1.26269 -0.25254,-3.78807 19.95051,-13.38452 z"
         style="fill:#bcd35f;fill-opacity:1;fill-rule:evenodd;stroke:none;stroke-width:1px;stroke-linecap:butt;stroke-linejoin:miter;stroke-opacity:1" />
      <path
         inkscape:export-ydpi="90"
         inkscape:export-xdpi="90"
         style="fill:#aa8800;fill-rule:evenodd;stroke:none;stroke-width:1px;stroke-linecap:butt;stroke-linejoin:miter;stroke-opacity:1"
         d="m 238.57143,574.8622 34.64286,-0.71428 -2.5,3.92857 2.85714,47.5 -16.07143,3.92857 -1.76405,-36.55484 -3.08801,36.46818 -14.43365,-2.41334 2.85714,-48.92857 z"
         id="path3379"
         inkscape:connector-curvature="0"
         sodipodi:nodetypes="cccccccccc" />
      <path
         inkscape:export-ydpi="90"
         inkscape:export-xdpi="90"
         sodipodi:nodetypes="cccc"
         inkscape:connector-curvature="0"
         id="path3443"
         d="m 232.85714,509.50506 -4.28571,22.14286 c -10.03039,-3.37724 -23.5437,-2.69108 -22.85714,-18.57143 5.68036,-5.11895 10.40836,-11.34898 27.14285,-3.57143 z"
         style="fill:#aca793;fill-rule:evenodd;stroke:none;stroke-width:1px;stroke-linecap:butt;stroke-linejoin:miter;stroke-opacity:1" />
    </g>
    <g
       id="g3449"
       inkscape:export-xdpi="90"
       inkscape:export-ydpi="90">
      <path
         inkscape:export-ydpi="90"
         inkscape:export-xdpi="90"
         inkscape:connector-curvature="0"
         id="path3435"
         d="m 540.5467,532.87867 -1.37525,5.82671 -71.03998,-17.13925 0.84036,-3.28227 z"
         style="fill:#784421;fill-rule:evenodd;stroke:none;stroke-width:1px;stroke-linecap:butt;stroke-linejoin:miter;stroke-opacity:1" />
      <path
         inkscape:export-ydpi="90"
         inkscape:export-xdpi="90"
         sodipodi:nodetypes="cccccccccccccccccccccccccccccccccccccccccccc"
         inkscape:connector-curvature="0"
         id="path3437"
         d="m 495.24414,498.62891 c -6.07469,-7e-5 -10.99813,4.92335 -10.99805,10.99804 0.005,1.90212 0.50282,3.77162 1.44532,5.42383 l 3.34179,10.02539 3.60547,0 -1.51758,5.66211 -10.09961,2.54883 -19.06445,13.17969 10.41406,17.06445 -3.78515,2.96094 2.83594,4.48828 9.08007,-4.20313 -1.4082,-6.41406 -2.69141,-1.19922 -4.78125,-9.9082 9.58203,-5.875 0.71485,39.63672 -2.24609,47.16406 -10.7793,6.28711 -0.44922,4.04297 17.51758,0 9.73437,-48.66602 9.73242,48.66602 17.51758,0 -0.44922,-4.04297 -10.77929,-6.28711 -2.2461,-47.16406 0.57422,-31.81836 11.94922,11.03516 7.27148,-4.12305 3.35743,-21.54688 2.70898,-0.97461 -0.94141,-5.49804 -7.98437,-1.64649 -2.11914,5.23438 2.71875,2.31836 -4.72461,17.09375 -11.92676,-19.12696 -10.34472,-3.28711 -1.70899,-5.60156 2.41016,0 5.26172,-12.66406 c 0.0956,-0.53504 0.27027,-1.65667 0.27148,-2.78516 7e-5,-6.07469 -4.92531,-10.99811 -11,-10.99804 z"
         style="fill:#d38d5f;fill-rule:evenodd;stroke:none;stroke-width:0.44465575px;stroke-linecap:butt;stroke-linejoin:miter;stroke-opacity:1" />
      <path
         inkscape:export-ydpi="90"
         inkscape:export-xdpi="90"
         sodipodi:nodetypes="ccccccccccccccccccc"
         inkscape:connector-curvature="0"
         id="path3439"
         d="m 490.31478,530.11334 6.06092,6.31345 4.54568,-6.06091 9.34391,3.03045 10.65519,15.7239 -4.23187,3.95395 0.69634,7.41026 -6.1095,-5.8749 0.50507,17.17259 -2.77792,4.29315 -26.5165,0.75761 -3.03046,-4.04061 1.51523,-5.80837 -0.50508,-21.71828 -7.3236,4.79822 -12.12183,-1.26269 -0.25254,-3.78807 19.95051,-13.38452 z"
         style="fill:#a02c2c;fill-opacity:1;fill-rule:evenodd;stroke:none;stroke-width:1px;stroke-linecap:butt;stroke-linejoin:miter;stroke-opacity:1" />
      <path
         inkscape:export-ydpi="90"
         inkscape:export-xdpi="90"
         style="fill:#536c67;fill-rule:evenodd;stroke:none;stroke-width:1px;stroke-linecap:butt;stroke-linejoin:miter;stroke-opacity:1"
         d="m 478.57143,574.8622 34.64286,-0.71428 -2.5,3.92857 2.85714,47.5 -16.07143,3.92857 -1.76405,-36.55484 -3.08801,36.46818 -14.43365,-2.41334 2.85714,-48.92857 z"
         id="path3441"
         inkscape:connector-curvature="0"
         sodipodi:nodetypes="cccccccccc" />
      <path
         inkscape:export-ydpi="90"
         inkscape:export-xdpi="90"
         sodipodi:nodetypes="ccccc"
         inkscape:connector-curvature="0"
         id="path3447"
         d="M 474.28571,526.64792 460,523.07649 c -0.64377,-8.42511 3.40846,-10.92261 -0.71429,-19.28572 7.61905,-6.09941 15.2381,-3.08542 22.85715,2.14286 -3.58514,5.93867 -6.17669,12.87094 -7.85715,20.71429 z"
         style="fill:#aca793;fill-rule:evenodd;stroke:none;stroke-width:1px;stroke-linecap:butt;stroke-linejoin:miter;stroke-opacity:1;fill-opacity:1" />
    </g>
  </g>
</svg>
